<svg width="512" height="512" viewBox="0 0 512 512" fill="none" xmlns="http://www.w3.org/2000/svg">
<rect width="512" height="512" />
<rect x="12" y="134" width="487" height="243" rx="73" fill="black"/>
<path d="M134.703 306.047H110.141V263.016H80.9375V243.047H163.906V263.016H134.703V306.047ZM208.812 241.406C214.75 241.406 220.312 241.906 225.5 242.906C230.719 243.875 235.281 245.531 239.188 247.875C243.125 250.188 246.203 253.328 248.422 257.297C250.672 261.266 251.797 266.219 251.797 272.156V276.75C251.797 282.688 250.672 287.641 248.422 291.609C246.203 295.547 243.125 298.688 239.188 301.031C235.281 303.375 230.719 305.031 225.5 306C220.312 307 214.75 307.5 208.812 307.5C202.875 307.5 197.297 307 192.078 306C186.859 305.031 182.281 303.375 178.344 301.031C174.438 298.688 171.359 295.547 169.109 291.609C166.891 287.641 165.781 282.688 165.781 276.75V272.156C165.781 266.219 166.891 261.266 169.109 257.297C171.359 253.328 174.438 250.188 178.344 247.875C182.281 245.531 186.859 243.875 192.078 242.906C197.297 241.906 202.875 241.406 208.812 241.406ZM227.234 275.203V273.656C227.234 270.281 226.406 267.719 224.75 265.969C223.094 264.188 220.859 262.984 218.047 262.359C215.266 261.703 212.188 261.375 208.812 261.375C205.406 261.375 202.297 261.703 199.484 262.359C196.703 262.984 194.484 264.188 192.828 265.969C191.172 267.719 190.344 270.281 190.344 273.656V275.203C190.344 278.609 191.172 281.203 192.828 282.984C194.484 284.734 196.703 285.938 199.484 286.594C202.297 287.219 205.406 287.531 208.812 287.531C212.188 287.531 215.266 287.219 218.047 286.594C220.859 285.938 223.094 284.734 224.75 282.984C226.406 281.203 227.234 278.609 227.234 275.203ZM310.625 286.078C312.75 286.078 314.547 285.562 316.016 284.531C317.516 283.469 318.656 282.078 319.438 280.359C320.219 278.609 320.609 276.672 320.609 274.547C320.609 272.422 320.219 270.484 319.438 268.734C318.656 266.984 317.516 265.594 316.016 264.562C314.547 263.531 312.75 263.016 310.625 263.016H283.719V286.078H310.625ZM315.219 306.047H259.156V243.047H315.219C321.031 243.047 326.188 244.469 330.688 247.312C335.219 250.125 338.766 253.922 341.328 258.703C343.922 263.453 345.219 268.734 345.219 274.547C345.219 280.328 343.922 285.609 341.328 290.391C338.766 295.141 335.219 298.938 330.688 301.781C326.188 304.625 321.031 306.047 315.219 306.047ZM394.812 241.406C400.75 241.406 406.312 241.906 411.5 242.906C416.719 243.875 421.281 245.531 425.188 247.875C429.125 250.188 432.203 253.328 434.422 257.297C436.672 261.266 437.797 266.219 437.797 272.156V276.75C437.797 282.688 436.672 287.641 434.422 291.609C432.203 295.547 429.125 298.688 425.188 301.031C421.281 303.375 416.719 305.031 411.5 306C406.312 307 400.75 307.5 394.812 307.5C388.875 307.5 383.297 307 378.078 306C372.859 305.031 368.281 303.375 364.344 301.031C360.438 298.688 357.359 295.547 355.109 291.609C352.891 287.641 351.781 282.688 351.781 276.75V272.156C351.781 266.219 352.891 261.266 355.109 257.297C357.359 253.328 360.438 250.188 364.344 247.875C368.281 245.531 372.859 243.875 378.078 242.906C383.297 241.906 388.875 241.406 394.812 241.406ZM413.234 275.203V273.656C413.234 270.281 412.406 267.719 410.75 265.969C409.094 264.188 406.859 262.984 404.047 262.359C401.266 261.703 398.188 261.375 394.812 261.375C391.406 261.375 388.297 261.703 385.484 262.359C382.703 262.984 380.484 264.188 378.828 265.969C377.172 267.719 376.344 270.281 376.344 273.656V275.203C376.344 278.609 377.172 281.203 378.828 282.984C380.484 284.734 382.703 285.938 385.484 286.594C388.297 287.219 391.406 287.531 394.812 287.531C398.188 287.531 401.266 287.219 404.047 286.594C406.859 285.938 409.094 284.734 410.75 282.984C412.406 281.203 413.234 278.609 413.234 275.203Z" fill="#7DCDFF"/>
<path d="M88.8906 216.906C88.8906 217.208 89.1458 217.438 89.6562 217.594C90.1771 217.75 90.875 217.865 91.75 217.938C92.6354 218 93.6302 218.057 94.7344 218.109C95.9219 218.161 97.1615 218.24 98.4531 218.344C99.7448 218.438 101 218.599 102.219 218.828C103.448 219.047 104.557 219.37 105.547 219.797C106.536 220.214 107.328 220.771 107.922 221.469C108.516 222.156 108.812 223.026 108.812 224.078C108.812 225.276 108.557 226.302 108.047 227.156C107.536 228.01 106.828 228.719 105.922 229.281C105.016 229.844 103.964 230.292 102.766 230.625C101.568 230.948 100.271 231.172 98.875 231.297C97.4792 231.432 96.0417 231.5 94.5625 231.5C92.7188 231.5 90.9792 231.417 89.3438 231.25C87.7083 231.083 86.25 230.745 84.9688 230.234C83.6875 229.724 82.6406 228.974 81.8281 227.984C81.026 226.995 80.5208 225.693 80.3125 224.078H88.8906C89.2031 224.62 89.6406 225.042 90.2031 225.344C90.7656 225.635 91.4167 225.839 92.1562 225.953C92.9062 226.068 93.7083 226.125 94.5625 226.125C95.1979 226.125 95.849 226.094 96.5156 226.031C97.1823 225.969 97.7969 225.865 98.3594 225.719C98.9219 225.562 99.375 225.354 99.7188 225.094C100.062 224.823 100.234 224.484 100.234 224.078C100.234 223.766 99.974 223.536 99.4531 223.391C98.9427 223.234 98.2448 223.12 97.3594 223.047C96.4844 222.974 95.4948 222.911 94.3906 222.859C93.2031 222.807 91.9635 222.734 90.6719 222.641C89.3802 222.536 88.1198 222.375 86.8906 222.156C85.6719 221.927 84.5677 221.604 83.5781 221.188C82.5885 220.76 81.7969 220.203 81.2031 219.516C80.6094 218.828 80.3125 217.958 80.3125 216.906C80.3125 215.698 80.5677 214.672 81.0781 213.828C81.5885 212.974 82.2969 212.266 83.2031 211.703C84.1094 211.13 85.1615 210.682 86.3594 210.359C87.5573 210.036 88.8542 209.807 90.25 209.672C91.6458 209.536 93.0833 209.469 94.5625 209.469C96.4062 209.469 98.1458 209.557 99.7812 209.734C101.417 209.901 102.875 210.24 104.156 210.75C105.438 211.25 106.479 211.995 107.281 212.984C108.094 213.974 108.604 215.281 108.812 216.906H100.234C99.9219 216.354 99.4844 215.932 98.9219 215.641C98.3594 215.339 97.7031 215.135 96.9531 215.031C96.2135 214.917 95.4167 214.859 94.5625 214.859C93.9271 214.859 93.276 214.891 92.6094 214.953C91.9427 215.005 91.3281 215.109 90.7656 215.266C90.2031 215.411 89.75 215.62 89.4062 215.891C89.0625 216.151 88.8906 216.49 88.8906 216.906ZM119.188 230.984H111V209.984H119.188V230.984ZM160.406 230.984H152.219V219.781L144.016 230.984H139.922L131.719 219.781V230.984H123.531V209.984H133.781L141.969 220.484L150.172 209.984H160.406V230.984ZM183.375 219.734C183.865 219.734 184.281 219.562 184.625 219.219C184.979 218.865 185.156 218.443 185.156 217.953C185.156 217.453 184.979 217.031 184.625 216.688C184.281 216.333 183.865 216.156 183.375 216.156H173.375V219.734H183.375ZM173.375 231.016H165.188V210.016H185.422C186.88 210.016 188.208 210.375 189.406 211.094C190.615 211.802 191.573 212.755 192.281 213.953C193 215.151 193.359 216.484 193.359 217.953C193.359 219.411 193 220.745 192.281 221.953C191.573 223.151 190.615 224.109 189.406 224.828C188.208 225.536 186.88 225.891 185.422 225.891H173.375V231.016ZM220.172 230.984H195.594V209.984H203.781V224.328H220.172V230.984ZM247.547 231.016H222.969V210.016H247.547V215.391H231.156V218.078H247.547V222.938H231.156V225.625H247.547V231.016Z" fill="#FF8888"/>
</svg>
